<svg xmlns="http://www.w3.org/2000/svg" width="24" height="24" viewBox="0 0 24 24">
  <g id="Group_3796" data-name="Group 3796" transform="translate(-902 -749)">
    <rect id="Rectangle_211" data-name="Rectangle 211" width="24" height="24" transform="translate(902 749)" fill="none"/>
    <path id="Path_6511" data-name="Path 6511" d="M19,21H10a2,2,0,0,1-2-2V15h2v4h9V5H10V9H8V5a2,2,0,0,1,2-2h9a2,2,0,0,1,2,2V19A2,2,0,0,1,19,21Zm-7-5V13H3V11h9V8l5,4Z" transform="translate(902 749)" fill="#0796e5"/>
  </g>
</svg>
