<svg xmlns="http://www.w3.org/2000/svg" width="24" height="24" viewBox="0 0 24 24">
  <g id="Group_1048" data-name="Group 1048" transform="translate(-902 -749)">
    <rect id="Rectangle_211" data-name="Rectangle 211" width="24" height="24" transform="translate(902 749)" fill="none"/>
    <g id="Group_3792" data-name="Group 3792" transform="translate(906 752)">
      <path id="Path_6512" data-name="Path 6512" d="M3,5a5,5,0,1,1,5,5A5,5,0,0,1,3,5ZM8,8A3,3,0,1,0,5,5,3,3,0,0,0,8,8Z" fill="#0796e5"/>
      <path id="Path_6513" data-name="Path 6513" d="M2.343,13.343A8,8,0,0,0,0,19H2a6,6,0,0,1,12,0h2A8,8,0,0,0,2.343,13.343Z" fill="#0796e5"/>
    </g>
  </g>
</svg>
